<?xml version="1.0" encoding="utf-8"?>
<!-- Generator: Adobe Illustrator 23.0.0, SVG Export Plug-In . SVG Version: 6.00 Build 0)  -->
<svg version="1.1" id="图层_1" xmlns="http://www.w3.org/2000/svg" x="0px" y="0px"
     viewBox="0 0 13 13" style="enable-background:new 0 0 13 13;" xml:space="preserve">
<style type="text/css">
	.st0{fill:#0092FE;}
</style>
    <path class="st0" d="M3.3,9.6c0.4,0.4,0.4,1,0,1.3c-0.4,0.4-1,0.4-1.3,0s-0.4-1,0-1.3C2.4,9.3,3,9.3,3.3,9.6z M2.3,10.6
	c0.2,0.2,0.5,0.2,0.7,0c0.2-0.2,0.2-0.5,0-0.7c-0.2-0.2-0.5-0.2-0.7,0C2.1,10.2,2.1,10.5,2.3,10.6z M11.1,1.9c0.4,0.4,0.4,1,0,1.3
	c-0.4,0.4-1,0.4-1.3,0c-0.4-0.4-0.4-1,0-1.3C10.1,1.5,10.7,1.5,11.1,1.9z M10.1,2.9c0.2,0.2,0.5,0.2,0.7,0s0.2-0.5,0-0.7
	c-0.2-0.2-0.5-0.2-0.7,0C9.9,2.4,9.9,2.7,10.1,2.9z M5.8,10.5c-0.1,0-0.3,0.1-0.4,0.1c-0.6,0.2-1.2,0.2-1.6,0.1
	c0,0.1-0.1,0.3-0.3,0.4c0.6,0.2,1.2,0.2,2,0C5.7,11,6,10.9,6.3,10.7C6.1,10.7,5.9,10.6,5.8,10.5z M10.7,5.3c-0.3,1.1-1,2.3-2,3.3
	C8.1,9.2,7.5,9.7,6.8,10c0.2,0.1,0.4,0.2,0.5,0.2C7.9,9.9,8.5,9.4,9,8.9c1.1-1.1,1.8-2.3,2.1-3.5c0.2-0.8,0.2-1.4,0-2
	c-0.1,0.1-0.3,0.2-0.4,0.2C10.9,4.1,10.9,4.6,10.7,5.3z M2.4,7.6c0.3-1.1,1-2.3,2-3.3C5,3.7,5.6,3.2,6.3,2.9
	C6.1,2.8,5.9,2.7,5.8,2.7C5.2,3,4.6,3.5,4.1,4C3,5,2.3,6.3,1.9,7.5c-0.2,0.7-0.2,1.4,0,1.9C2,9.3,2.2,9.2,2.3,9.2
	C2.2,8.7,2.2,8.2,2.4,7.6z M7.4,2.4c0.1,0,0.3-0.1,0.4-0.1c0.6-0.2,1.2-0.2,1.6-0.1c0-0.1,0.1-0.3,0.2-0.4C9,1.6,8.3,1.6,7.6,1.8
	C7.4,1.9,7.1,2,6.8,2.1C7,2.2,7.2,2.3,7.4,2.4z M3.3,3.2C3,3.6,2.4,3.6,2,3.2s-0.4-1,0-1.3s1-0.4,1.3,0S3.7,2.8,3.3,3.2z M2.4,2.2
	c-0.2,0.2-0.2,0.5,0,0.7c0.2,0.2,0.5,0.2,0.7,0c0.2-0.2,0.2-0.5,0-0.7C2.8,2,2.5,2,2.4,2.2z M11.1,11c-0.4,0.4-1,0.4-1.3,0
	c-0.4-0.4-0.4-1,0-1.3c0.4-0.4,1-0.4,1.3,0C11.5,10,11.5,10.6,11.1,11z M10.1,10c-0.2,0.2-0.2,0.5,0,0.7c0.2,0.2,0.5,0.2,0.7,0
	c0.2-0.2,0.2-0.5,0-0.7C10.6,9.8,10.3,9.8,10.1,10z M2.5,5.6c0-0.1-0.1-0.3-0.1-0.4C2.2,4.6,2.2,4.1,2.3,3.6C2.2,3.5,2,3.5,1.9,3.3
	c-0.2,0.6-0.2,1.2,0,2C2,5.6,2.1,5.9,2.2,6.2C2.3,6,2.4,5.8,2.5,5.6z"/>
    <path class="st0" d="M7.7,10.6c-1.1-0.3-2.3-1-3.3-2C3.8,8,3.3,7.4,3,6.7C2.9,6.9,2.8,7.1,2.8,7.3C3.1,7.8,3.5,8.4,4,8.9
	c1.1,1.1,2.3,1.8,3.5,2.1c0.8,0.2,1.4,0.2,2,0c-0.1-0.1-0.2-0.3-0.2-0.4C8.9,10.8,8.3,10.7,7.7,10.6z M5.4,2.3c1.1,0.3,2.3,1,3.3,2
	c0.6,0.6,1.1,1.2,1.4,1.9c0.1-0.2,0.2-0.4,0.2-0.5C10,5.1,9.5,4.5,9,4C7.9,2.9,6.7,2.1,5.5,1.8c-0.7-0.2-1.4-0.2-1.9,0
	C3.6,1.9,3.7,2,3.8,2.2C4.2,2.1,4.8,2.1,5.4,2.3z M10.6,7.2c0,0.1,0.1,0.2,0.1,0.4c0.2,0.6,0.2,1.2,0.1,1.6c0.1,0,0.3,0.1,0.4,0.2
	c0.1-0.6,0.1-1.2,0-1.9C11.1,7.2,11,7,10.9,6.7L10.6,7.2z"/>
    <path class="st0" d="M5.5,6.9H4.8L4.6,7.5H4.1l0.7-2.3h0.5l0.8,2.3H5.7L5.5,6.9z M5.4,6.6L5.3,6.3C5.3,6.1,5.2,5.8,5.2,5.6h0
	C5.1,5.8,5,6.1,4.9,6.3L4.9,6.6C4.9,6.6,5.4,6.6,5.4,6.6z M6.4,5.2h0.7c0.5,0,0.9,0.2,0.9,0.7c0,0.5-0.4,0.8-0.9,0.8H6.9v0.8H6.4
	L6.4,5.2L6.4,5.2z M7.1,6.3c0.3,0,0.5-0.1,0.5-0.4c0-0.3-0.2-0.4-0.5-0.4H6.9v0.7C6.9,6.3,7.1,6.3,7.1,6.3z M8.5,5.2h0.5v2.3H8.5
	V5.2z"/>
</svg>
