<?xml version="1.0" encoding="utf-8"?>
<!-- Generator: Adobe Illustrator 23.0.0, SVG Export Plug-In . SVG Version: 6.00 Build 0)  -->
<svg version="1.1" id="图层_1" xmlns="http://www.w3.org/2000/svg" x="0px" y="0px"
     viewBox="0 0 40 40" style="enable-background:new 0 0 40 40;" xml:space="preserve">
<style type="text/css">
	.st0{fill:#868E96;}
	.st1{fill:#495057;}
	.st2{fill:#ADB5BD;}
	.st3{fill:#20C997;}
	.st4{fill:#FC7070;}
	.st5{fill:#FFFFFF;}
</style>
    <path class="st0" d="M8.8,19.6h20.8v12.7H8.8V19.6z"/>
    <path class="st1" d="M8.6,15.7h21.2c0.9,0,1.3,0.4,1.3,1.3v3.2c0,0.9-0.4,1.3-1.3,1.3H8.6c-0.9,0-1.3-0.4-1.3-1.3V17
	C7.3,16.1,7.7,15.7,8.6,15.7z"/>
    <path class="st2" d="M19.2,18.4H28c0.2,0,0.3,0.1,0.3,0.3l0,0c0,0.2-0.1,0.3-0.3,0.3h-8.8c-0.2,0-0.3-0.1-0.3-0.3l0,0
	C19,18.5,19.1,18.4,19.2,18.4z"/>
    <path class="st3" d="M9.7,18.6c0,0.5,0.4,0.9,0.9,0.9c0.5,0,0.9-0.4,0.9-0.9c0,0,0,0,0,0c0-0.5-0.4-0.9-0.9-0.9
	C10.1,17.8,9.7,18.2,9.7,18.6z"/>
    <path class="st1" d="M8.6,22.8h21.2c0.9,0,1.3,0.4,1.3,1.3v3.2c0,0.9-0.4,1.3-1.3,1.3H8.6c-0.9,0-1.3-0.4-1.3-1.3v-3.2
	C7.3,23.2,7.7,22.8,8.6,22.8z"/>
    <path class="st3" d="M9.7,25.7c0,0.5,0.4,0.9,0.9,0.9c0.5,0,0.9-0.4,0.9-0.9c0,0,0,0,0,0c0-0.5-0.4-0.9-0.9-0.9
	C10.1,24.9,9.7,25.3,9.7,25.7z"/>
    <path class="st1" d="M8.6,30.1h21.2c0.9,0,1.3,0.4,1.3,1.3v3.2c0,0.9-0.4,1.3-1.3,1.3H8.6c-0.9,0-1.3-0.4-1.3-1.3v-3.2
	C7.3,30.6,7.7,30.1,8.6,30.1z"/>
    <path class="st3" d="M9.7,33.1c0,0.5,0.4,0.9,0.9,0.9c0.5,0,0.9-0.4,0.9-0.9c0,0,0,0,0,0c0-0.5-0.4-0.9-0.9-0.9
	C10.1,32.2,9.7,32.6,9.7,33.1z"/>
    <path class="st4" d="M12.6,18.6c0,0.5,0.4,0.9,0.9,0.9c0.5,0,0.9-0.4,0.9-0.9c0-0.5-0.4-0.9-0.9-0.9C12.9,17.8,12.6,18.2,12.6,18.6z
	"/>
    <path class="st4"
          d="M12.6,25.7c0,0.5,0.4,0.9,0.9,0.9c0.5,0,0.9-0.4,0.9-0.9s-0.4-0.9-0.9-0.9C12.9,24.9,12.6,25.3,12.6,25.7z"/>
    <path class="st4"
          d="M12.6,33.1c0,0.5,0.4,0.9,0.9,0.9c0.5,0,0.9-0.4,0.9-0.9s-0.4-0.9-0.9-0.9C12.9,32.2,12.6,32.6,12.6,33.1z"/>
    <path class="st2" d="M19.2,25.5H28c0.2,0,0.3,0.1,0.3,0.3l0,0c0,0.2-0.1,0.3-0.3,0.3h-8.8c-0.2,0-0.3-0.1-0.3-0.3l0,0
	C19,25.6,19.1,25.5,19.2,25.5z"/>
    <path class="st2" d="M19.2,32.8H28c0.2,0,0.3,0.1,0.3,0.3l0,0c0,0.2-0.1,0.3-0.3,0.3h-8.8c-0.2,0-0.3-0.1-0.3-0.3l0,0
	C19,32.9,19.1,32.8,19.2,32.8z"/>
    <path class="st4"
          d="M21.4,17.3c0,3.6,2.9,6.5,6.5,6.5s6.5-2.9,6.5-6.5s-2.9-6.5-6.5-6.5S21.4,13.7,21.4,17.3z"/>
    <path class="st5" d="M24.9,19.5c-0.2,0.2-0.2,0.6,0,0.8c0.2,0.2,0.6,0.2,0.8,0l1.9-1.9l-0.8-0.8L24.9,19.5z M29.7,15.9l0.8-0.4
	l0.4-0.9l-0.4-0.4l-0.9,0.4l-0.4,0.8l-1,1l0.4,0.4L29.7,15.9z"/>
    <path class="st5" d="M29.9,18.1L29.9,18.1c-0.2,0-0.4,0-0.5,0.1L27,15.8c0-0.1,0.1-0.3,0.1-0.4l0-0.1c0-0.6-0.6-1.1-1.2-1.1
	c-0.2,0-0.3,0-0.4,0.1l0.8,0.8c0,0,0.1,0.1,0.1,0.1c0.1,0.2,0,0.4-0.2,0.5c0,0-0.1,0-0.1,0c0,0-0.1,0-0.1,0c-0.1,0-0.1,0-0.1-0.1
	l-0.8-0.8c-0.1,0.2-0.1,0.3-0.1,0.5c0,0.6,0.5,1.1,1.1,1.2l0.1,0c0.1,0,0.3,0,0.4-0.1l2.4,2.4c0,0.1-0.1,0.3-0.1,0.4l0,0.1
	c0,0.6,0.6,1.1,1.2,1.1c0.2,0,0.3,0,0.5-0.1l-0.8-0.8c0,0-0.1-0.1-0.1-0.1c-0.1-0.2,0-0.4,0.2-0.5c0,0,0.1,0,0.1,0
	c0.1,0,0.2,0,0.3,0.1l0.8,0.8c0.3-0.6,0-1.3-0.5-1.6C30.2,18.2,30.1,18.1,29.9,18.1L29.9,18.1z"/>
    <path class="st4" d="M7,6.2v1.9c0,0-1.3-0.1-1.6,0.7s-0.3,5.3-0.2,7S5.1,18,4.9,18.5s-1.3,1.4-1.3,1.4s1,0.3,1.3,1.2
	C5.2,22,5.2,23.4,5.2,24c-0.1,0.7-0.3,5.7,0,6.3C5.5,30.9,7,31.5,7,31.5v2.2c0,0-2.4,0.2-3.2-1.7c-0.8-1.9-0.2-7.7-0.2-7.7
	s0.2-1.8-0.5-2.7c-0.7-0.8-1.3-0.7-1.3-0.7V19c0,0,1-0.3,1.3-1c0.3-0.6,0.5-2.7,0.5-2.7S2.8,9.4,3.7,7.6S7,6.2,7,6.2z"/>
    <path class="st3" d="M32.9,33.7v-1.9c0,0,1.3,0.1,1.6-0.7c0.3-0.8,0.3-5.3,0.2-7c-0.1-1.7,0.1-2.2,0.3-2.7c0.3-0.5,1.3-1.4,1.3-1.4
	s-1-0.3-1.3-1.2c-0.3-0.9-0.4-2.2-0.3-2.9c0.1-0.7,0.3-5.7,0-6.3s-1.8-1.2-1.8-1.2V6.2c0,0,2.4-0.2,3.2,1.7s0.2,7.7,0.2,7.7
	s-0.2,1.8,0.5,2.7c0.7,0.8,1.3,0.7,1.3,0.7v1.9c0,0-1,0.3-1.3,1c-0.3,0.6-0.5,2.7-0.5,2.7s0.7,5.9-0.2,7.7
	C35.3,34,32.9,33.7,32.9,33.7z"/>
    <path class="st1" d="M8.4,8.8H9V6.8h0.8C10,6.9,10.1,7,10.2,7.2c0.1,0.3,0.4,1.6,0.4,1.6h0.6c0,0-0.3-1.5-0.5-1.8
	c-0.1-0.1-0.2-0.3-0.3-0.4c0.5-0.2,0.8-0.7,0.7-1.2c-0.1-0.9-1-1.2-1-1.2H8.4V8.8z M9,4.7h0.7c0,0,0.7,0,0.7,0.7S9.8,6.3,9.8,6.3H9
	V4.7z M12,4.2h2.3v0.5h-1.7v1.4h1.6v0.5h-1.6v1.7h1.8v0.4H12V4.2z M17.3,4.9l0.3-0.5c0,0-0.6-0.3-1.2-0.3c-0.6,0-1.4,0.4-1.4,1.3
	s0.7,1.2,0.8,1.3C16.1,6.8,17,6.8,17,7.7c0,0.9-1.1,0.5-1.1,0.5l-0.7-0.3l-0.3,0.6c0.4,0.2,0.8,0.3,1.2,0.3c0.7,0,1.8-0.2,1.7-1.4
	S16.3,6,16.3,6s-0.5-0.3-0.5-0.7c0-0.3,0.3-0.5,0.6-0.5c0,0,0.1,0,0.1,0C16.6,4.8,17.3,4.9,17.3,4.9L17.3,4.9z M18,4.2h3.1v0.6H20
	v3.9h-0.7V4.8H18L18,4.2L18,4.2z M27.3,4.2H28v4.6h-0.7C27.3,8.8,27.3,4.2,27.3,4.2z M23.5,4v0.4c0,0-0.5-0.1-0.7,0.1
	c-0.3,0.2-0.2,1-0.2,1h0.6V6h-0.6v2.8h-0.6V6h-0.6V5.5h0.6c0,0-0.1-0.9,0.2-1.3C22.4,3.8,23.5,4,23.5,4z M23.7,5.5h0.7v2.3
	c0,0,0.2,0.5,0.6,0.5c0.4,0,0.6-0.5,0.6-0.5V5.5h0.7v3.3h-0.5l-0.1-0.4c-0.2,0.3-0.6,0.5-1,0.5c-0.6,0-1.2-0.5-1.2-1.2V5.5L23.7,5.5
	z"/>
</svg>
