<?xml version="1.0" encoding="utf-8"?>
<!-- Generator: Adobe Illustrator 23.0.0, SVG Export Plug-In . SVG Version: 6.00 Build 0)  -->
<svg version="1.1" id="图层_1" xmlns="http://www.w3.org/2000/svg" x="0px" y="0px"
	 viewBox="0 0 16 16" style="enable-background:new 0 0 16 16;" xml:space="preserve">
<style type="text/css">
	.st0{fill:#CF473C;}
	.st1{display:none;}
	.st2{display:inline;fill:#F2F2F2;}
	.st3{fill:#F2F2F2;}
</style>
<circle id="bg" class="st0" cx="8" cy="8" r="8"/>
<g class="st1">
	<path class="st2" d="M6.98,9.61C6.91,9.89,6.7,11.1,6.35,13.25c-0.03,0.19-0.11,0.35-0.25,0.48c-0.14,0.13-0.3,0.19-0.48,0.19
		c-0.19,0-0.34-0.06-0.43-0.19c-0.1-0.13-0.13-0.29-0.1-0.48l0.32-2.02C5.54,10.48,5.73,9.53,6,8.39c0.01-0.06,0.21-1.01,0.59-2.86
		l0.14-0.94c0.16-1.11,0.5-1.61,1-1.51c0.3-0.1,0.85-0.14,1.65-0.14c0.84,0,1.57,0.27,2.19,0.82c0.63,0.55,0.94,1.18,0.94,1.91
		c0,1.06-0.45,1.99-1.36,2.81c-0.91,0.82-2.02,1.23-3.33,1.23C7.68,9.69,7.4,9.67,6.98,9.61z M8.07,4.3L7.86,5.55L7.28,8.3
		l0.75,0.09c0.29,0.04,0.72-0.03,1.28-0.21C9.87,8,10.33,7.68,10.68,7.23c0.36-0.45,0.53-0.92,0.53-1.39c0-0.42-0.22-0.79-0.66-1.12
		C10.11,4.4,9.6,4.24,9.01,4.24C8.54,4.24,8.23,4.26,8.07,4.3z"/>
</g>
<g>
	<path class="st3" d="M4.94,12.99H4.87c-0.18,0-0.33-0.06-0.44-0.17c-0.11-0.11-0.17-0.25-0.17-0.41c0-0.11,0.06-0.45,0.18-1.03
		l0.48-2.51C5.03,8.3,5.27,6.72,5.65,4.13l0.14-0.95c0.03-0.24,0.16-0.46,0.39-0.65s0.44-0.3,0.63-0.3c0.1,0,0.45,0.15,1.03,0.46
		c0.64,0.34,1.01,0.53,1.13,0.56c1.2,0.44,2.18,1.11,2.96,2s1.16,1.86,1.16,2.91c0,0.95-0.28,1.88-0.85,2.79S11,12.54,10.2,12.97
		c-0.8,0.43-1.81,0.65-3.05,0.65c-0.36,0-0.77-0.06-1.23-0.18S5.14,13.16,4.94,12.99z M7.05,4.04L6.47,7.98l-0.7,3.77
		c0.01,0.01,0.03,0.02,0.05,0.03c0.43,0.31,0.95,0.47,1.54,0.47c1.18,0,2.05-0.21,2.6-0.63c0.55-0.42,0.98-0.92,1.27-1.49
		c0.29-0.57,0.44-1.15,0.44-1.73c0-0.59-0.17-1.14-0.49-1.64c-0.33-0.5-0.77-0.92-1.32-1.26C9.3,5.14,8.36,4.66,7.05,4.04z"/>
</g>
<g>
</g>
<g>
</g>
<g>
</g>
<g>
</g>
<g>
</g>
<g>
</g>
<g>
</g>
<g>
</g>
<g>
</g>
<g>
</g>
<g>
</g>
</svg>
