<?xml version="1.0" encoding="utf-8"?>
<!-- Generator: Adobe Illustrator 23.0.0, SVG Export Plug-In . SVG Version: 6.00 Build 0)  -->
<svg version="1.1" id="图层_1" xmlns="http://www.w3.org/2000/svg" x="0px" y="0px"
	 viewBox="0 0 16 16" style="enable-background:new 0 0 16 16;" xml:space="preserve">
<style type="text/css">
	.st0{fill:#FFFFFF;}
	.st1{display:none;}
	.st2{display:inline;fill:#F2F2F2;}
	.st3{fill:#CF473C;}
</style>
<circle id="bg" class="st0" cx="8" cy="8" r="8"/>
<g class="st1">
	<path class="st2" d="M7,9.6c-0.1,0.3-0.3,1.5-0.6,3.6c0,0.2-0.1,0.4-0.3,0.5c-0.1,0.1-0.3,0.2-0.5,0.2s-0.3-0.1-0.4-0.2
		c-0.1-0.1-0.1-0.3-0.1-0.5l0.3-2C5.5,10.5,5.7,9.5,6,8.4c0-0.1,0.2-1,0.6-2.9l0.1-0.9c0.2-1.1,0.5-1.6,1-1.5C8,3,8.6,2.9,9.4,2.9
		c0.8,0,1.6,0.3,2.2,0.8c0.6,0.5,0.9,1.2,0.9,1.9c0,1.1-0.4,2-1.4,2.8s-2,1.2-3.3,1.2C7.7,9.7,7.4,9.7,7,9.6z M8.1,4.3L7.9,5.6
		L7.3,8.3L8,8.4c0.3,0,0.7,0,1.3-0.2s1-0.5,1.4-1c0.4-0.4,0.5-0.9,0.5-1.4c0-0.4-0.2-0.8-0.7-1.1C10.1,4.4,9.6,4.2,9,4.2
		C8.5,4.2,8.2,4.3,8.1,4.3z"/>
</g>
<g>
	<path class="st3" d="M4.1,14L4.1,14c-0.4,0-0.5-0.1-0.6-0.2c-0.1-0.1-0.2-0.4-0.2-0.5s0.1-0.5,0.2-1.2l0.6-3c0.1-0.7,0.5-2.6,1-5.8
		l0.1-1.2c0-0.2,0.2-0.6,0.5-0.7s0.5-0.4,0.7-0.4c0.1,0,0.5,0.2,1.2,0.6C8.5,2,8.9,2.3,9.1,2.4c1.4,0.5,2.6,1.3,3.6,2.4
		s1.4,2.3,1.4,3.5c0,1.1-0.4,2.3-1.1,3.4s-1.4,1.9-2.4,2.4s-2.2,0.7-3.7,0.7c-0.5,0-1-0.1-1.4-0.2C5,14.4,4.4,14.3,4.1,14z M6.8,3.2
		L6.1,8l-0.8,4.6c0,0,0,0,0.1,0c0.5,0.4,1.1,0.6,1.8,0.6c1.4,0,2.4-0.2,3.1-0.7c0.7-0.5,1.2-1.1,1.6-1.8c0.4-0.7,0.5-1.3,0.5-2
		s-0.2-1.3-0.6-1.9s-1-1.1-1.6-1.6C9.4,4.5,8.3,4.1,6.8,3.2z"/>
</g>
</svg>
