<?xml version="1.0" encoding="utf-8"?>
<!-- Generator: Adobe Illustrator 23.0.0, SVG Export Plug-In . SVG Version: 6.00 Build 0)  -->
<svg version="1.1" id="图层_1" xmlns="http://www.w3.org/2000/svg" x="0px" y="0px"
	 viewBox="0 0 16 16" style="enable-background:new 0 0 16 16;" xml:space="preserve">
<style type="text/css">
	.st0{fill:#009245;}
	.st1{fill:none;}
	.st2{fill:#F2F2F2;}
</style>
<circle id="GET" class="st0" cx="8" cy="8" r="8"/>
<g>
	<rect x="0" y="0" class="st1" width="16" height="16"/>
	<path class="st2" d="M12.5,8.35c-0.51,1.34-1.3,2.42-2.39,3.27c-1.09,0.84-2.28,1.26-3.59,1.26c-2.09,0-3.13-0.95-3.13-2.84
		c0-1.82,0.73-3.69,2.18-5.59C7.03,2.54,8.44,1.58,9.8,1.58c0.47,0,1.08,0.17,1.82,0.51c0.74,0.34,1.11,0.71,1.11,1.1
		c0,0.25-0.11,0.48-0.34,0.71s-0.49,0.33-0.79,0.33c-0.14,0-0.42-0.13-0.86-0.38C10.31,3.59,9.9,3.46,9.5,3.46
		c-0.42,0-1.06,0.46-1.9,1.37C6.75,5.74,6.16,6.63,5.84,7.5C5.51,8.36,5.35,9.14,5.35,9.82c0,0.5,0.13,0.82,0.4,0.97
		C6.01,10.93,6.37,11,6.82,11c0.75,0,1.44-0.22,2.05-0.67s1.1-1.04,1.45-1.76C9.28,8.63,8.31,8.85,7.43,9.21
		c-0.12,0.06-0.27,0.1-0.45,0.1c-0.25,0-0.45-0.08-0.6-0.25C6.23,8.89,6.16,8.71,6.16,8.51c0-0.62,0.54-1.08,1.64-1.39
		c1.09-0.31,2.56-0.47,4.41-0.47c0.26,0,0.46,0.08,0.62,0.23c0.15,0.15,0.23,0.33,0.23,0.55C13.05,7.82,12.87,8.13,12.5,8.35z"/>
</g>
<g>
</g>
<g>
</g>
<g>
</g>
<g>
</g>
<g>
</g>
<g>
</g>
<g>
</g>
<g>
</g>
<g>
</g>
<g>
</g>
<g>
</g>
</svg>
