<?xml version="1.0" encoding="utf-8"?>
<!-- Generator: Adobe Illustrator 23.0.0, SVG Export Plug-In . SVG Version: 6.00 Build 0)  -->
<svg version="1.1" id="图层_1" xmlns="http://www.w3.org/2000/svg" x="0px" y="0px"
	 viewBox="0 0 16 16" style="enable-background:new 0 0 16 16;" xml:space="preserve">
<style type="text/css">
	.st0{fill:#FFFFFF;}
	.st1{fill:none;}
	.st2{fill:#009245;}
</style>
<circle id="GET" class="st0" cx="8" cy="8" r="8"/>
<g>
	<rect class="st1" width="16" height="16"/>
	<path class="st2" d="M13.3,9.2c-0.6,1.6-1.6,2.9-2.9,4c-1.3,1-2.8,1.6-4.3,1.6c-2.5,0-3.7-1.1-3.7-3.4c0-2.2,0.8-4.4,2.6-6.7
		C6.7,2.1,8.3,1,10,1c0.6,0,1.3,0.2,2.2,0.6C13,2,13.5,2.5,13.5,3c0,0.4-0.1,0.6-0.4,0.8s-0.6,0.4-1,0.4c-0.1,0-0.5-0.1-1.1-0.5
		c-0.5-0.4-1-0.5-1.4-0.5S8.3,3.8,7.4,4.9S5.7,7,5.2,8.1C4.9,9.2,4.6,10,4.6,10.9c0,0.6,0.1,1,0.5,1.2c0.4,0.1,0.8,0.2,1.3,0.2
		c1,0,1.7-0.2,2.4-0.8c0.7-0.6,1.3-1.2,1.7-2.2C9.3,9.4,8.1,9.7,7,10c0,0.2-0.1,0.2-0.4,0.2c-0.4,0-0.5-0.1-0.7-0.4S5.7,9.6,5.7,9.3
		c0-0.7,0.6-1.3,1.9-1.7S10.7,7,12.9,7c0.4,0,0.6,0.1,0.7,0.2C13.9,7.5,14,7.8,14,8C14,8.5,13.7,8.8,13.3,9.2z"/>
</g>
</svg>
