<?xml version="1.0" encoding="utf-8"?>
<!-- Generator: Adobe Illustrator 23.0.0, SVG Export Plug-In . SVG Version: 6.00 Build 0)  -->
<svg version="1.1" id="图层_1" xmlns="http://www.w3.org/2000/svg" x="0px" y="0px"
	 viewBox="0 0 16 16" style="enable-background:new 0 0 16 16;" xml:space="preserve">
<style type="text/css">
	.st0{fill:#FFFFFF;}
	.st1{display:none;}
	.st2{display:inline;fill:#F2F2F2;}
	.st3{fill:#75B0A4;}
</style>
<circle id="bg" class="st0" cx="8" cy="8" r="8"/>
<g class="st1">
	<path class="st2" d="M7,9.6c-0.1,0.3-0.3,1.5-0.6,3.6c0,0.2-0.1,0.4-0.3,0.5c-0.1,0.1-0.3,0.2-0.5,0.2c-0.2,0-0.3-0.1-0.4-0.2
		c-0.1-0.1-0.1-0.3-0.1-0.5l0.3-2C5.5,10.5,5.7,9.5,6,8.4c0-0.1,0.2-1,0.6-2.9l0.1-0.9c0.2-1.1,0.5-1.6,1-1.5C8,3,8.6,2.9,9.4,2.9
		c0.8,0,1.6,0.3,2.2,0.8c0.6,0.5,0.9,1.2,0.9,1.9c0,1.1-0.4,2-1.4,2.8s-2,1.2-3.3,1.2C7.7,9.7,7.4,9.7,7,9.6z M8.1,4.3L7.9,5.6
		L7.3,8.3L8,8.4c0.3,0,0.7,0,1.3-0.2s1-0.5,1.4-1c0.4-0.4,0.5-0.9,0.5-1.4c0-0.4-0.2-0.8-0.7-1.1C10.1,4.4,9.6,4.2,9,4.2
		C8.5,4.2,8.2,4.3,8.1,4.3z"/>
</g>
<g>
	<path class="st3" d="M12.6,3.3c-0.1,0.2-0.1,0.5-0.1,0.9c0,0.1,0,0.3,0,0.6c0,0.3,0,0.5,0,0.6c0,0.5,0,1.2-0.1,2.1
		s-0.1,1.6-0.1,2.1c0,0.4,0,0.9,0.1,1.6c0.1,0.7,0.1,1.2,0.1,1.6c0,0.2-0.1,0.4-0.2,0.5c-0.1,0.1-0.3,0.2-0.5,0.2
		c-0.2,0-0.3-0.1-0.5-0.2c-0.1-0.1-0.2-0.3-0.2-0.5c0-0.4,0-0.9-0.1-1.6c-0.1-0.7-0.1-1.2-0.1-1.6c0-0.3,0-0.7,0-1
		c-0.8,0-1.8,0.1-3,0.4L5,9.5c0,0.4,0,1-0.1,1.8c-0.1,0.8-0.1,1.4-0.1,1.8c0,0.2-0.1,0.4-0.2,0.5c-0.1,0.1-0.3,0.2-0.5,0.2
		s-0.4-0.1-0.5-0.2c-0.1-0.1-0.2-0.3-0.2-0.5c0-0.5,0-1.2,0.1-2.2c0.1-1,0.1-1.7,0.1-2.2c0-0.3,0-0.6,0-1.2c0-0.5,0-0.9,0-1.2
		c0-0.4,0-0.9,0.1-1.7c0-0.7,0.1-1.3,0.1-1.7c0-0.2,0.1-0.4,0.2-0.5c0.1-0.1,0.3-0.2,0.5-0.2s0.4,0.1,0.5,0.2C5,2.6,5.1,2.7,5.1,2.9
		c0,0.4,0,0.9-0.1,1.7c0,0.7-0.1,1.3-0.1,1.7l0,1.8l3-0.6c1.2-0.2,2.2-0.3,3-0.4c0.1-0.7,0.1-1.7,0.1-3c0-0.4,0.1-0.7,0.2-1.1
		c0.2-0.5,0.4-0.8,0.7-0.8c0.2,0,0.3,0.1,0.5,0.2s0.2,0.3,0.2,0.5C12.6,3,12.6,3.1,12.6,3.3z"/>
</g>
</svg>
