<?xml version="1.0" encoding="utf-8"?>
<!-- Generator: Adobe Illustrator 23.0.0, SVG Export Plug-In . SVG Version: 6.00 Build 0)  -->
<svg version="1.1" id="图层_1" xmlns="http://www.w3.org/2000/svg" x="0px" y="0px"
	 viewBox="0 0 16 16" style="enable-background:new 0 0 16 16;" xml:space="preserve">
<style type="text/css">
	.st0{fill:#75B0A4;}
	.st1{display:none;}
	.st2{display:inline;fill:#F2F2F2;}
	.st3{fill:#FFFFFF;}
</style>
<circle id="bg" class="st0" cx="8" cy="8" r="8"/>
<g class="st1">
	<path class="st2" d="M7,9.6c-0.1,0.3-0.3,1.5-0.6,3.6c0,0.2-0.1,0.4-0.3,0.5c-0.1,0.1-0.3,0.2-0.5,0.2c-0.2,0-0.3-0.1-0.4-0.2
		c-0.1-0.1-0.1-0.3-0.1-0.5l0.3-2C5.5,10.5,5.7,9.5,6,8.4c0-0.1,0.2-1,0.6-2.9l0.1-0.9c0.2-1.1,0.5-1.6,1-1.5C8,3,8.6,2.9,9.4,2.9
		c0.8,0,1.6,0.3,2.2,0.8c0.6,0.5,0.9,1.2,0.9,1.9c0,1.1-0.4,2-1.4,2.8s-2,1.2-3.3,1.2C7.7,9.7,7.4,9.7,7,9.6z M8.1,4.3L7.9,5.6
		L7.3,8.3L8,8.4c0.3,0,0.7,0,1.3-0.2s1-0.5,1.4-1c0.4-0.4,0.5-0.9,0.5-1.4c0-0.4-0.2-0.8-0.7-1.1C10.1,4.4,9.6,4.2,9,4.2
		C8.5,4.2,8.2,4.3,8.1,4.3z"/>
</g>
<g>
	<path class="st3" d="M12.1,4c-0.1,0.2-0.1,0.4-0.1,0.7c0,0.1,0,0.3,0,0.5s0,0.4,0,0.5c0,0.4,0,1-0.1,1.7s-0.1,1.4-0.1,1.7
		c0,0.3,0,0.7,0.1,1.3s0.1,1,0.1,1.3c0,0.2-0.1,0.3-0.2,0.4s-0.2,0.2-0.4,0.2c-0.2,0-0.3-0.1-0.4-0.2s-0.2-0.2-0.2-0.4
		c0-0.3,0-0.7-0.1-1.3s-0.1-1-0.1-1.3c0-0.3,0-0.6,0-0.9c-0.7,0-1.5,0.1-2.5,0.3L5.8,9.2c0,0.4,0,0.9-0.1,1.5s-0.1,1.1-0.1,1.5
		c0,0.2-0.1,0.3-0.2,0.4s-0.2,0.2-0.4,0.2s-0.3-0.1-0.4-0.2s-0.2-0.2-0.2-0.4c0-0.4,0-1,0.1-1.9s0.1-1.4,0.1-1.9c0-0.2,0-0.5,0-1
		s0-0.8,0-1c0-0.3,0-0.8,0.1-1.4s0.1-1.1,0.1-1.4c0-0.2,0.1-0.3,0.2-0.4s0.2-0.2,0.4-0.2s0.3,0.1,0.4,0.2s0.2,0.2,0.2,0.4
		c0,0.3,0,0.8-0.1,1.4S5.8,6.2,5.8,6.6l0,1.5l2.5-0.5c1-0.2,1.8-0.3,2.5-0.3c0-0.6,0.1-1.4,0.1-2.5c0-0.3,0-0.6,0.1-0.9
		c0.1-0.4,0.3-0.6,0.5-0.6c0.1,0,0.3,0.1,0.4,0.2s0.2,0.2,0.2,0.4C12.2,3.8,12.2,3.9,12.1,4z"/>
</g>
</svg>
