<?xml version="1.0" encoding="utf-8"?>
<!-- Generator: Adobe Illustrator 23.0.0, SVG Export Plug-In . SVG Version: 6.00 Build 0)  -->
<svg version="1.1" id="图层_1" xmlns="http://www.w3.org/2000/svg" x="0px" y="0px"
	 viewBox="0 0 16 16" style="enable-background:new 0 0 16 16;" xml:space="preserve">
<style type="text/css">
	.st0{fill:#FFFFFF;}
	.st1{enable-background:new    ;}
	.st2{fill:#00C1C9;}
</style>
<circle id="GET" class="st0" cx="8" cy="8" r="8"/>
<g class="st1">
	<path class="st2" d="M7.8,13c-1.2,0-2.2-0.4-3-1.1c-0.9-0.8-1.3-1.7-1.3-2.9c0-1.5,0.4-2.8,1.3-4c1-1.3,2.2-2,3.6-2
		c1.4,0,2.4,0.3,3.1,0.9c0.7,0.7,1.1,1.7,1.1,3.1c0,1.5-0.4,2.8-1.2,4C10.4,12.3,9.3,13,7.8,13z M8.4,4.3c-1,0-1.9,0.5-2.6,1.5
		c-0.7,0.9-1,2-1,3.1c0,0.8,0.3,1.5,0.9,2c0.6,0.5,1.3,0.7,2.2,0.7c1,0,1.9-0.5,2.5-1.6c0.6-0.9,0.9-2,0.9-3.1c0-1-0.2-1.7-0.7-2.1
		C10.1,4.5,9.4,4.3,8.4,4.3z"/>
</g>
<g>
	<path d="M656.4-241.8c1.5,0.3,1.8,0.6,1.8,1.2c0,0.3-0.2,0.5-0.4,0.5c-0.1,0-0.2,0-0.3-0.3c-0.2-0.5-0.4-0.8-1.2-1.3L656.4-241.8z
		 M659.9-242.9l-1.3,4.7c-0.1,0.4-0.2,0.9-0.2,1.4c0,0.5,0.1,1.1,0.2,1.7c0,0.1,0,0.2,0,0.2c0,0.4-0.2,0.6-0.4,0.6
		c-0.2,0-0.4-0.2-0.4-0.5c0-0.1,0-0.2,0-0.3c0.1-0.7,0.2-1.2,0.2-1.5c0-0.5-0.2-0.6-0.5-0.7c-0.3-0.1-0.6-0.1-1-0.1v-0.2
		c1.2,0,1.5-0.1,1.7-0.7l1.6-4.6L659.9-242.9z M657.1-244.5c1.4,0.4,2,0.6,2,1.2c0,0.3-0.1,0.6-0.3,0.6c-0.1,0-0.2,0-0.3-0.3
		c-0.2-0.4-0.5-0.8-1.4-1.3L657.1-244.5z M667.6-235.1c-0.5,0-0.8,0.1-1,0.4c0,0-0.1,0.1-0.1,0.1c0,0-0.1,0-0.1,0
		c-1.8-1.2-2.5-2.4-3.1-3.8c-0.3,0.3-0.7,0.6-1.1,0.9v2.6l1.6-0.7l0.1,0.2c-1.4,0.8-1.8,1.1-2.1,1.4c0,0-0.1,0.1-0.1,0.1
		c0,0,0,0-0.1,0l-0.3-0.5c0.4-0.2,0.4-0.3,0.4-0.5v-2.1c-0.9,0.7-1.8,1.4-2.7,1.8l-0.1-0.2c1.3-0.9,3-2.3,4.3-3.8l0.6,0.5
		c0,0,0,0,0,0c0,0,0,0-0.1,0c-0.1,0-0.2,0-0.3,0.1c0.2,0.5,0.5,1,0.8,1.4c0.6-0.5,1.2-0.9,1.6-1.4l0.5,0.5c0,0,0,0,0,0.1
		c0,0,0,0.1-0.1,0.1c-0.1,0-0.2,0-1.9,0.9c0.8,0.9,1.8,1.7,3.2,1.8V-235.1z M662.5-242.4c0,0,0.1,0.1,0.1,0.1c0,0,0,0-0.1,0
		c-0.2,0-0.3,0.1-0.5,0.3c-0.8,0.8-1.4,1.2-2.2,1.9l-0.1-0.1c0.8-0.8,1.8-2,2.2-2.7L662.5-242.4z M667.3-243.4
		c0.1,0.1,0.1,0.1,0.1,0.2c0,0-0.1,0.1-0.2,0.1h-6.4c-0.3,0-0.6,0-0.8,0.1l-0.3-0.4c0.3,0,0.6,0,0.9,0h5.5l0.5-0.6L667.3-243.4z
		 M664.1-241.1c1.5,0.9,1.7,1.2,1.7,1.5c0,0.3-0.1,0.5-0.4,0.5c-0.1,0-0.2-0.1-0.3-0.3c0-0.1,0-0.2-0.1-0.3l-1.3,0.1
		c-1.4,0.2-2.2,0.3-2.4,0.5c0,0,0,0,0,0c0,0-0.1,0-0.1-0.1l-0.3-0.6c0.5-0.1,0.6-0.2,0.9-0.5c0.6-0.6,1-1.2,1.5-1.9l0.5,0.5
		c0.1,0,0.1,0.1,0.1,0.1c0,0,0,0-0.1,0.1c-0.2,0-0.3,0.1-0.5,0.4c-0.4,0.4-1,0.9-1.7,1.4l3.3-0.2c-0.2-0.3-0.5-0.7-0.9-1
		L664.1-241.1z M662.4-245.1c1.1,0.4,1.6,0.7,1.6,1.2c0,0.3-0.2,0.5-0.3,0.5c-0.1,0-0.3-0.1-0.4-0.4c-0.1-0.2-0.4-0.7-0.9-1.1
		L662.4-245.1z M664.7-242.8c0.9,0.4,2.1,1.2,2.1,2c0,0.3-0.2,0.5-0.3,0.5c-0.1,0-0.2,0-0.3-0.4c-0.3-0.7-0.8-1.4-1.5-1.9
		L664.7-242.8z"/>
	<path d="M668.4-241.8c1.5,0.3,1.8,0.6,1.8,1.2c0,0.3-0.2,0.5-0.4,0.5c-0.1,0-0.2,0-0.3-0.3c-0.2-0.5-0.4-0.8-1.2-1.3L668.4-241.8z
		 M671.9-242.9l-1.3,4.7c-0.1,0.4-0.2,0.9-0.2,1.4c0,0.5,0.1,1.1,0.2,1.7c0,0.1,0,0.2,0,0.2c0,0.4-0.2,0.6-0.4,0.6
		c-0.2,0-0.4-0.2-0.4-0.5c0-0.1,0-0.2,0-0.3c0.1-0.7,0.2-1.2,0.2-1.5c0-0.5-0.2-0.6-0.5-0.7c-0.3-0.1-0.6-0.1-1-0.1v-0.2
		c1.2,0,1.5-0.1,1.7-0.7l1.6-4.6L671.9-242.9z M669.1-244.5c1.4,0.4,2,0.6,2,1.2c0,0.3-0.1,0.6-0.3,0.6c-0.1,0-0.2,0-0.3-0.3
		c-0.2-0.4-0.5-0.8-1.4-1.3L669.1-244.5z M679.6-235.1c-0.5,0-0.8,0.1-1,0.4c0,0-0.1,0.1-0.1,0.1c0,0-0.1,0-0.1,0
		c-1.8-1.2-2.5-2.4-3.1-3.8c-0.3,0.3-0.7,0.6-1.1,0.9v2.6l1.6-0.7l0.1,0.2c-1.4,0.8-1.8,1.1-2.1,1.4c0,0-0.1,0.1-0.1,0.1
		c0,0,0,0-0.1,0l-0.3-0.5c0.4-0.2,0.4-0.3,0.4-0.5v-2.1c-0.9,0.7-1.8,1.4-2.7,1.8l-0.1-0.2c1.3-0.9,3-2.3,4.3-3.8l0.6,0.5
		c0,0,0,0,0,0c0,0,0,0-0.1,0c-0.1,0-0.2,0-0.3,0.1c0.2,0.5,0.5,1,0.8,1.4c0.6-0.5,1.2-0.9,1.6-1.4l0.5,0.5c0,0,0,0,0,0.1
		c0,0,0,0.1-0.1,0.1c-0.1,0-0.2,0-1.9,0.9c0.8,0.9,1.8,1.7,3.2,1.8V-235.1z M674.5-242.4c0,0,0.1,0.1,0.1,0.1c0,0,0,0-0.1,0
		c-0.2,0-0.3,0.1-0.5,0.3c-0.8,0.8-1.4,1.2-2.2,1.9l-0.1-0.1c0.8-0.8,1.8-2,2.2-2.7L674.5-242.4z M679.3-243.4
		c0.1,0.1,0.1,0.1,0.1,0.2c0,0-0.1,0.1-0.2,0.1h-6.4c-0.3,0-0.6,0-0.8,0.1l-0.3-0.4c0.3,0,0.6,0,0.9,0h5.5l0.5-0.6L679.3-243.4z
		 M676.1-241.1c1.5,0.9,1.7,1.2,1.7,1.5c0,0.3-0.1,0.5-0.4,0.5c-0.1,0-0.2-0.1-0.3-0.3c0-0.1,0-0.2-0.1-0.3l-1.3,0.1
		c-1.4,0.2-2.2,0.3-2.4,0.5c0,0,0,0,0,0c0,0-0.1,0-0.1-0.1l-0.3-0.6c0.5-0.1,0.6-0.2,0.9-0.5c0.6-0.6,1-1.2,1.5-1.9l0.5,0.5
		c0.1,0,0.1,0.1,0.1,0.1c0,0,0,0-0.1,0.1c-0.2,0-0.3,0.1-0.5,0.4c-0.4,0.4-1,0.9-1.7,1.4l3.3-0.2c-0.2-0.3-0.5-0.7-0.9-1
		L676.1-241.1z M674.4-245.1c1.1,0.4,1.6,0.7,1.6,1.2c0,0.3-0.2,0.5-0.3,0.5c-0.1,0-0.3-0.1-0.4-0.4c-0.1-0.2-0.4-0.7-0.9-1.1
		L674.4-245.1z M676.7-242.8c0.9,0.4,2.1,1.2,2.1,2c0,0.3-0.2,0.5-0.3,0.5c-0.1,0-0.2,0-0.3-0.4c-0.3-0.7-0.8-1.4-1.5-1.9
		L676.7-242.8z"/>
	<path d="M691.7-235.4c-0.7,0-1.3,0.3-1.4,0.6c0,0,0,0-0.1,0c0,0,0,0-0.1,0c-2.3-1-3.8-2.4-4.5-5h-1.9v4.6l2.5-1.1l0.1,0.2
		c-2.1,1.2-2.7,1.7-2.9,1.9c0,0.1-0.1,0.1-0.1,0.1s-0.1,0-0.1,0l-0.6-0.5c0.5-0.4,0.6-0.6,0.6-1v-4.2h-1.7c-0.3,0-0.6,0-0.8,0.1
		l-0.3-0.4c0.3,0,0.6,0,0.9,0h2v-3.4c0-0.5,0-1.3,0-1.7l1,0.5c0.1,0,0.1,0.1,0.1,0.1c0,0,0,0.1-0.1,0.1l-0.4,0.3v4.1h6.2l0.6-0.8
		l0.9,0.9c0.1,0.1,0.1,0.1,0.1,0.1c0,0,0,0-0.1,0h-5.5c1.2,2.7,3,4.2,5.8,4.2V-235.4z M689.5-243.9
		C689.6-243.9,689.6-243.8,689.5-243.9c0.1,0.1,0,0.1-0.1,0.1c-0.3,0-0.6,0.1-1.1,0.5c-1,0.7-2.5,1.6-3.7,2.4l-0.1-0.1
		c1.9-1.4,3.2-2.5,4.2-3.6L689.5-243.9z"/>
	<path d="M692.5-242.1c1.1,0.4,1.7,0.6,1.7,1.3c0,0.3-0.1,0.5-0.3,0.5c-0.1,0-0.2,0-0.3-0.4c-0.2-0.5-0.6-0.9-1.1-1.2L692.5-242.1z
		 M695.8-242.5l-1.3,4c-0.2,0.6-0.3,1.1-0.3,1.6c0,0.3,0,0.6,0.1,1c0.1,0.4,0.1,0.7,0.1,0.9c0,0.4-0.1,0.6-0.4,0.6
		c-0.2,0-0.4-0.2-0.4-0.6c0-0.1,0-0.2,0-0.3c0.1-0.6,0.2-1,0.2-1.3c0-0.5,0-1-1.3-1.2l0-0.2c0.3,0,0.5,0,0.6,0c0.5,0,0.7-0.2,1-0.9
		l1.5-3.7L695.8-242.5z M693.7-244.7c1.1,0.4,1.6,0.7,1.6,1.2c0,0.3-0.1,0.5-0.3,0.5c-0.1,0-0.2-0.1-0.3-0.3
		c-0.2-0.5-0.5-0.8-1.1-1.3L693.7-244.7z M703.3-235.6c0.1,0.1,0.1,0.2,0.1,0.2c0,0-0.1,0.1-0.2,0.1H696c-0.3,0-0.6,0-0.8,0.1
		l-0.3-0.4c0.3,0,0.6,0,0.9,0h3.2v-7.6h-1.7c-0.3,0-0.6,0-0.8,0.1l-0.3-0.4c0.3,0,0.6,0,0.9,0h4.4l0.5-0.7l0.7,0.7
		c0.1,0.1,0.1,0.1,0.1,0.2s-0.1,0.1-0.2,0.1h-3v7.6h2.6l0.6-0.7L703.3-235.6z"/>
	<path d="M708.5-238C708.6-238,708.6-237.9,708.5-238c0.1,0.1,0,0.1,0,0.1c-0.3,0.1-0.3,0.1-0.4,0.2c-2,2.1-2.5,2.5-3.5,3.1
		l-0.1-0.2c1.3-1.1,2.5-2.5,3.3-3.9L708.5-238z M715.4-243c0.1,0.1,0.1,0.1,0.1,0.1c0,0,0,0-0.1,0h-6.5l-1.9,3.2h3.2v-0.7
		c0-0.8,0-1.1,0-1.5l0.9,0.4c0.1,0,0.1,0,0.1,0.1s0,0.1-0.1,0.1l-0.3,0.2v1.3h2.3l0.5-0.7l0.8,0.8c0.1,0.1,0.1,0.1,0.1,0.1
		c0,0,0,0-0.1,0h-3.6v4c0,0.8-0.2,1-1,1.3c0,0,0,0,0,0c0,0-0.1,0-0.1-0.1c-0.1-0.4-0.2-0.5-1.4-0.9l0-0.1c0.8,0.1,1.2,0.2,1.5,0.2
		c0.4,0,0.4-0.1,0.4-0.4v-4H707l-0.3,0.3c0,0-0.1,0.1-0.1,0.1c0,0,0,0-0.1,0l-0.6-0.6c0.6-0.2,0.6-0.3,0.8-0.6
		c0.5-0.7,1-1.6,1.5-2.5h-2.4c-0.3,0-0.6,0-0.8,0.1l-0.3-0.4c0.3,0,0.6,0,0.9,0h2.8c0.4-0.8,0.8-1.5,1.1-2.1l0.7,0.6
		c0,0,0.1,0.1,0.1,0.1s0,0-0.1,0.1l-0.5,0.2L709-243h5l0.6-0.8L715.4-243z M711.8-238.3c2.4,1.4,3.2,2.1,3.2,2.9
		c0,0.3-0.1,0.5-0.3,0.5c-0.1,0-0.2-0.1-0.4-0.6c-0.3-0.6-1-1.5-2.5-2.7L711.8-238.3z"/>
	<path d="M727.6-234.9c-0.5,0.1-0.7,0.3-0.9,0.6c-0.1,0.1-0.1,0.1-0.2,0.1c-1.9,0-3.8-0.1-5.1-0.2c-1.3-0.1-2.2-0.6-2.7-1.7
		c-0.1-0.2-0.1-0.3-0.2-0.3c-0.2,0-1,1.2-1.2,1.9c0,0.1,0,0.1-0.1,0.1c0,0-0.1,0-0.1,0l-0.6-0.3l1.9-1.8v-3.7h-0.9
		c-0.2,0-0.5,0-0.6,0.1l-0.3-0.4c0.4,0,0.6,0,0.8,0h0.9l0.3-0.5l0.8,0.6c0,0,0.1,0.1,0.1,0.1c0,0,0,0.1-0.1,0.1l-0.3,0.2v3.5
		c0,0.8,0.9,1.8,2.7,1.8c0.4,0,0.8,0,1.2,0c1.4,0,2.9-0.1,4.8-0.2V-234.9z M717.4-244.4c0.5,0.3,1.6,1,1.6,1.6
		c0,0.3-0.3,0.6-0.4,0.6s-0.2-0.1-0.3-0.4c-0.1-0.4-0.5-1.2-1-1.7L717.4-244.4z M723.2-242.5C723.2-242.5,723.2-242.4,723.2-242.5
		c0.1,0.1,0,0.2,0,0.2h-1.5v1.8l1.4-0.7l0.1,0.2l-1.4,0.9v2.9c0,0.8-0.1,1-0.7,1.3c0,0,0,0-0.1,0c0,0-0.1,0-0.1-0.1
		c-0.1-0.4-0.4-0.6-1.1-0.8v-0.1c0.5,0.1,0.8,0.2,1.1,0.2c0.4,0,0.4-0.2,0.4-0.5v-2.5c-0.9,0.6-1.1,0.8-1.2,0.9c0,0-0.1,0.1-0.1,0.1
		s-0.1,0-0.1-0.1l-0.4-0.4l1.8-1v-2.1h-0.5c-0.3,0-0.6,0-0.8,0.1l-0.3-0.4c0.3,0,0.6,0,0.9,0h0.7v-0.8c0-0.5,0-1.3,0-1.7l0.8,0.4
		c0,0,0.1,0,0.1,0.1c0,0,0,0.1-0.3,0.2v1.8h0.5l0.4-0.5L723.2-242.5z M727.4-241.4c0.1,0.1,0.1,0.1,0.1,0.1s0,0-0.1,0H726v3.1
		c0,0.9,0,1.7,0,2.1v0.1c0,0.2,0,0.2-0.3,0.3c-0.1,0-0.2,0.1-0.2,0.1c-0.1,0-0.1-0.1-0.1-0.3v-0.1c0-0.7,0-1.5,0-2.2v-3.1h-1.3
		c0,3.5-0.3,4.3-2.2,5.8l-0.1-0.1c1.8-1.6,1.8-2.5,1.8-6.2c0-0.8,0-1.5,0-2.5l0.6,0.6c0.8-0.3,1.5-0.6,2.2-1.1l0.6,0.5
		c0,0,0.1,0.1,0.1,0.1c0,0,0,0-0.1,0c0,0-0.2,0-0.2,0c-0.1,0-0.3,0-0.6,0.1c-0.6,0.2-1.2,0.3-2,0.5v2h2.3l0.4-0.6L727.4-241.4z"/>
	<path d="M733-241.7C733.1-241.6,733.1-241.6,733-241.7c0.1,0.1,0,0.1,0,0.1c-0.2,0-0.4,0.2-0.5,0.6c-0.9,2.6-2.2,4.5-4,6l-0.1-0.1
		c1.9-2,3-3.9,3.6-6.3h-2.3c-0.3,0-0.6,0-0.8,0.1l-0.3-0.4c0.3,0,0.6,0,0.9,0h2.5l0.4-0.5L733-241.7z M739.6-235.8
		c-0.1,0-0.3,0-0.4,0c-0.4,0-0.7,0.1-0.9,0.3c0,0-0.1,0.1-0.1,0.1c0,0-0.1,0-0.1,0c-2.1-2-3.1-3.7-3.9-7.5v7.6
		c0,0.9-0.1,1.2-0.9,1.5c0,0,0,0-0.1,0c0,0-0.1,0-0.1-0.1c0-0.3-0.3-0.6-1.5-0.9l0-0.2c0.8,0.2,1.2,0.2,1.5,0.2
		c0.4,0,0.4-0.2,0.4-0.5v-8.1c0-0.5,0-1.3,0-1.8l1,0.5c0,0,0.1,0,0.1,0.1c0,0,0,0-0.1,0.1l-0.4,0.2v0.6c0.3,1.1,0.6,2.3,1.1,3.3
		c0.6-0.6,1.6-1.7,2.4-2.6l0.7,0.7c0.1,0.1,0.1,0.1,0.1,0.1c0,0,0,0-0.2,0c-0.2,0-0.4,0-0.6,0.2l-2.3,1.8c1.2,2.8,2.7,3.9,4.2,4.3
		V-235.8z"/>
</g>
</svg>
