<?xml version="1.0" encoding="utf-8"?>
<!-- Generator: Adobe Illustrator 23.0.0, SVG Export Plug-In . SVG Version: 6.00 Build 0)  -->
<svg version="1.1" id="图层_1" xmlns="http://www.w3.org/2000/svg" x="0px" y="0px"
	 viewBox="0 0 16 16" style="enable-background:new 0 0 16 16;" xml:space="preserve">
<style type="text/css">
	.st0{fill:#00C1C9;}
	.st1{fill:#FFFFFF;}
</style>
<circle id="GET" class="st0" cx="8" cy="8" r="8"/>
<g>
	<path class="st1" d="M7.9,12.7c-1.1,0-2-0.3-2.8-1C4.3,11,3.9,10.1,3.9,9c0-1.4,0.4-2.6,1.2-3.7c0.9-1.2,2-1.8,3.3-1.8
		c1.3,0,2.2,0.3,2.9,0.9c0.7,0.6,1,1.6,1,2.8c0,1.4-0.4,2.6-1.1,3.7C10.3,12.1,9.2,12.7,7.9,12.7z M8.4,4.6c-1,0-1.8,0.5-2.4,1.4
		C5.4,7,5.1,7.9,5.1,9c0,0.8,0.3,1.4,0.8,1.8c0.5,0.4,1.2,0.7,2,0.7c0.9,0,1.7-0.5,2.4-1.4c0.6-0.9,0.8-1.8,0.8-2.9
		c0-0.9-0.2-1.6-0.6-2C10,4.8,9.4,4.6,8.4,4.6z"/>
</g>
</svg>
