<?xml version="1.0" encoding="utf-8"?>
<!-- Generator: Adobe Illustrator 23.0.0, SVG Export Plug-In . SVG Version: 6.00 Build 0)  -->
<svg version="1.1" id="图层_1" xmlns="http://www.w3.org/2000/svg" x="0px" y="0px"
	 viewBox="0 0 16 16" style="enable-background:new 0 0 16 16;" xml:space="preserve">
<style type="text/css">
	.st0{fill:#FFFFFF;}
	.st1{fill:#C69C6D;}
</style>
<circle id="bg" class="st0" cx="8" cy="8" r="8"/>
<g>
	<path class="st1" d="M6.6,9.8c-0.1,0.4-0.4,1.8-0.7,4.3c0,0.2-0.1,0.5-0.4,0.6C5.4,14.9,5.2,15,5,15s-0.4-0.1-0.5-0.2
		c-0.1-0.1-0.1-0.4-0.1-0.6l0.4-2.4c0.1-0.8,0.4-2,0.7-3.4c0-0.1,0.2-1.2,0.7-3.5l0.1-1.1C6.5,2.5,6.9,1.9,7.5,2
		c0.4-0.1,1.1-0.2,2-0.2s1.9,0.4,2.6,1c0.7,0.6,1.1,1.4,1.1,2.3c0,1.3-0.5,2.4-1.7,3.4s-2.4,1.4-4,1.4C7.5,10,7.1,10,6.6,9.8z
		 M8,3.5L7.7,5L7,8.3l0.8,0.1c0.4,0,0.8,0,1.6-0.2s1.2-0.6,1.7-1.2c0.5-0.5,0.6-1.1,0.6-1.7c0-0.5-0.2-1-0.8-1.3
		C10.4,3.6,9.8,3.4,9,3.4C8.4,3.4,8.1,3.5,8,3.5z"/>
</g>
</svg>
