<?xml version="1.0" encoding="utf-8"?>
<!-- Generator: Adobe Illustrator 23.0.0, SVG Export Plug-In . SVG Version: 6.00 Build 0)  -->
<svg version="1.1" id="图层_1" xmlns="http://www.w3.org/2000/svg" x="0px" y="0px"
	 viewBox="0 0 16 16" style="enable-background:new 0 0 16 16;" xml:space="preserve">
<style type="text/css">
	.st0{fill:#FFFFFF;}
	.st1{fill:#0071BC;}
	.st2{display:none;}
	.st3{display:inline;fill:#F2F2F2;}
</style>
<circle id="bg" class="st0" cx="8" cy="8" r="8"/>
<g>
	<path class="st1" d="M6.6,9.8c-0.1,0.4-0.4,1.8-0.7,4.3c0,0.2-0.1,0.5-0.4,0.6C5.4,14.9,5.2,15,5,15s-0.4-0.1-0.5-0.2
		c-0.1-0.1-0.1-0.4-0.1-0.6l0.4-2.4c0.1-0.8,0.4-2,0.7-3.4c0-0.1,0.2-1.2,0.7-3.5l0.1-1.1C6.5,2.5,6.9,1.9,7.5,2
		c0.4-0.1,1.1-0.2,2-0.2s1.9,0.4,2.6,1c0.7,0.6,1.1,1.4,1.1,2.3c0,1.3-0.5,2.4-1.7,3.4s-2.4,1.4-4,1.4C7.5,10,7.1,10,6.6,9.8z
		 M8,3.5L7.7,5L7,8.3l0.8,0.1c0.4,0,0.8,0,1.6-0.2s1.2-0.6,1.7-1.2c0.5-0.5,0.6-1.1,0.6-1.7c0-0.5-0.2-1-0.8-1.3
		C10.4,3.6,9.8,3.4,9,3.4C8.4,3.4,8.1,3.5,8,3.5z"/>
</g>
<g class="st2">
	<path class="st3" d="M4.9,13L4.9,13c-0.3,0-0.4-0.1-0.5-0.2s-0.2-0.3-0.2-0.4c0-0.1,0.1-0.4,0.2-1l0.5-2.5C5,8.3,5.3,6.7,5.7,4.1
		l0.1-1c0-0.2,0.2-0.5,0.4-0.6s0.4-0.3,0.6-0.3c0.1,0,0.4,0.2,1,0.5C8.5,3,8.9,3.2,9,3.3c1.2,0.4,2.2,1.1,3,2s1.2,1.9,1.2,2.9
		c0,0.9-0.3,1.9-0.9,2.8s-1.2,1.6-2,2s-1.8,0.6-3.1,0.6c-0.4,0-0.8-0.1-1.2-0.2S5.1,13.2,4.9,13z M7.1,4L6.5,8l-0.7,3.8
		c0,0,0,0,0.1,0c0.4,0.3,0.9,0.5,1.5,0.5c1.2,0,2-0.2,2.6-0.6s1-0.9,1.3-1.5s0.4-1.1,0.4-1.7s-0.2-1.1-0.5-1.6S10.4,6,9.9,5.6
		C9.3,5.1,8.4,4.7,7.1,4z"/>
</g>
</svg>
