<?xml version="1.0" encoding="utf-8"?>
<!-- Generator: Adobe Illustrator 23.0.0, SVG Export Plug-In . SVG Version: 6.00 Build 0)  -->
<svg version="1.1" id="图层_1" xmlns="http://www.w3.org/2000/svg" x="0px" y="0px"
	 viewBox="0 0 16 16" style="enable-background:new 0 0 16 16;" xml:space="preserve">
<style type="text/css">
	.st0{fill:#666666;}
	.st1{fill:#F2F2F2;}
</style>
<circle id="bg" class="st0" cx="8" cy="8" r="8"/>
<g>
	<path class="st1" d="M6.28,9.23L6.1,10.92l-0.19,1.35c-0.02,0.18-0.11,0.34-0.26,0.49c-0.15,0.15-0.33,0.22-0.55,0.22
		c-0.18,0-0.32-0.06-0.43-0.17c-0.11-0.11-0.16-0.25-0.16-0.41l0.21-1.75c0.15-1.32,0.37-2.49,0.65-3.51
		C5.68,6.07,5.86,5.1,5.91,4.23c0.04-0.6,0.08-1,0.13-1.21s0.18-0.41,0.38-0.6c0.2-0.18,0.43-0.27,0.69-0.25l1.65,0.12
		c0.84,0.06,1.67,0.45,2.51,1.16c0.84,0.71,1.25,1.51,1.25,2.42c0,1.56-1.11,2.67-3.34,3.35c0.77,0.44,1.45,0.94,2.05,1.5
		c0.59,0.56,0.89,0.99,0.89,1.29c0,0.2-0.08,0.38-0.25,0.55c-0.17,0.17-0.36,0.25-0.58,0.25c-0.17,0-0.32-0.07-0.46-0.21
		C9.32,10.8,7.8,9.68,6.28,9.23z M7.35,3.63L7.23,4.97c-0.01,0.15-0.04,0.37-0.1,0.66C7.08,5.93,6.99,6.27,6.88,6.66L6.52,8.05h0.61
		c1.34,0,2.34-0.21,3-0.63s1-0.85,1-1.29c0-0.55-0.29-1.07-0.86-1.56C9.69,4.08,9.05,3.79,8.35,3.72L7.35,3.63z"/>
</g>
<g>
</g>
<g>
</g>
<g>
</g>
<g>
</g>
<g>
</g>
<g>
</g>
<g>
</g>
<g>
</g>
<g>
</g>
<g>
</g>
<g>
</g>
</svg>
