<?xml version="1.0" encoding="utf-8"?>
<!-- Generator: Adobe Illustrator 23.0.0, SVG Export Plug-In . SVG Version: 6.00 Build 0)  -->
<svg version="1.1" id="图层_1" xmlns="http://www.w3.org/2000/svg" x="0px" y="0px"
	 viewBox="0 0 16 16" style="enable-background:new 0 0 16 16;" xml:space="preserve">
<style type="text/css">
	.st0{fill:#FFFFFF;}
	.st1{fill:#666666;}
</style>
<circle id="bg" class="st0" cx="8" cy="8" r="8"/>
<g>
	<path class="st1" d="M5.8,9.4l-0.2,2l-0.2,1.7c0,0.2-0.1,0.4-0.4,0.6s-0.4,0.2-0.6,0.2c-0.2,0-0.4-0.1-0.5-0.2
		c-0.1-0.1-0.2-0.4-0.2-0.5L3.9,11c0.2-1.6,0.5-3,0.8-4.2c0.4-1.3,0.6-2.4,0.6-3.5c0-0.7,0.1-1.2,0.1-1.4s0.2-0.5,0.5-0.7
		C6.2,1,6.4,0.8,6.8,0.8l2,0.1c1,0.1,2,0.6,3,1.4s1.6,1.8,1.6,2.9c0,1.9-1.3,3.2-4,4c1,0.5,1.7,1.1,2.5,1.8c0.7,0.7,1.1,1.2,1.1,1.6
		c0,0.2-0.1,0.5-0.4,0.7c-0.2,0.2-0.5,0.4-0.7,0.4c-0.2,0-0.4-0.1-0.6-0.2C9.4,11.3,7.6,10,5.8,9.4z M7,2.6L6.9,4.3
		c0,0.2,0,0.5-0.1,0.8c0,0.2-0.1,0.7-0.2,1.2L6,8h0.7c1.6,0,2.8-0.2,3.6-0.7s1.2-1,1.2-1.6c0-0.7-0.4-1.3-1.1-1.9
		c-0.6-0.6-1.3-1-2.2-1.1L7,2.6z"/>
</g>
</svg>
