<?xml version="1.0" encoding="utf-8"?>
<!-- Generator: Adobe Illustrator 23.0.0, SVG Export Plug-In . SVG Version: 6.00 Build 0)  -->
<svg version="1.1" id="图层_1" xmlns="http://www.w3.org/2000/svg" x="0px" y="0px"
	 viewBox="0 0 16 16" style="enable-background:new 0 0 16 16;" xml:space="preserve">
<style type="text/css">
	.st0{fill:#A85490;}
	.st1{fill:#FFFFFF;}
</style>
<path class="st0" d="M8,16L8,16c-4.4,0-8-3.6-8-8v0c0-4.4,3.6-8,8-8h0c4.4,0,8,3.6,8,8v0C16,12.4,12.4,16,8,16z"/>
<g>
	<path class="st1" d="M12.2,5.6c-0.3,0-0.7,0-1.3-0.1c-0.6,0-1-0.1-1.3-0.1H9.1c0,0.5,0.1,1.4,0.2,2.6c0.1,1.1,0.1,2,0.1,2.6
		c0,0.1,0,0.3,0,0.6s0,0.5,0,0.6c0,0.3,0,0.5-0.1,0.7C9.2,12.9,9,13,8.8,13c-0.2,0-0.3-0.1-0.4-0.2s-0.2-0.3-0.2-0.4
		c0-0.1,0-0.1,0-0.3s0-0.2,0-0.3c0-0.2,0-0.5,0-0.9s0-0.7,0-0.9c0-0.6,0-1.3-0.1-2.4C7.9,6.8,7.9,6,7.9,5.5l-0.5,0
		c-0.9,0-1.5-0.1-2-0.2C5,5.2,4.9,5,4.9,4.7c0-0.2,0.1-0.3,0.2-0.4c0.1-0.1,0.3-0.2,0.5-0.2c0.1,0,0.4,0,0.9,0.1
		c0.4,0,0.7,0.1,0.9,0.1c0.2,0,0.6,0,1.1,0s0.8,0,1.1,0c0.3,0,0.7,0,1.3,0.1s1,0.1,1.3,0.1c0.2,0,0.3,0.1,0.4,0.2s0.2,0.3,0.2,0.4
		c0,0.2-0.1,0.3-0.2,0.4S12.3,5.6,12.2,5.6z"/>
</g>
<g>
</g>
<g>
</g>
<g>
</g>
<g>
</g>
<g>
</g>
<g>
</g>
<g>
</g>
<g>
</g>
<g>
</g>
<g>
</g>
<g>
</g>
</svg>
